<svg xmlns="http://www.w3.org/2000/svg" xmlns:xlink="http://www.w3.org/1999/xlink" version="1.1" x="0px" y="0px" viewBox="0 0 100 125" enable-background="new 0 0 100 100" xml:space="preserve">
  <g>
    <path d="M85,48.323V36.726l3.843-2.051l-4.259-2.066c-0.133-2.119-0.769-5.797-3.038-8.182c-1.441-1.513-3.206-2.28-5.442-2.28   c-0.082,0-8.104,0.138-8.104,12.038v9.42v0.292c0.041,0.468-0.214,1.721-0.973,2.549c-0.508,0.553-1.315,0.821-2.398,0.821   c-1.086,0-2.101-0.268-2.607-0.821C61.262,45.617,61,44.218,61,43.76v-1.798l4.332-2.054l-3.995-2.054l0.062-16.829l3.903-2.051   L61,16.922v-4.719c0-11.9-11.431-12.038-11.548-12.038c-4.035,0-7.062,1.181-9.225,3.511c-2.135,2.302-2.693,5.158-2.858,6.944   l-3.808,2.074L38,14.745V30.53l-4.102,2.051L38,34.632V54.07v0.305c0.041,0.471-0.479,1.709-1.238,2.536   c-0.507,0.553-1.359,0.822-2.443,0.822s-1.897-0.27-2.403-0.822c-0.76-0.827-0.84-2.225-0.801-2.684l-0.008-1.8l4.103-2.054   l-4.107-2.052l0.002-3.671c0-11.9-8.124-12.038-8.206-12.038c-2.235,0-4.276,0.767-5.718,2.28C13.905,38.332,14,44.467,14,44.65   v0.533l-4.102,2.051L14,49.285V61.93l-3.925,2.051l4.401,2.156c0.283,1.125,1.291,2.678,2.796,4.26   C20.977,74.293,28,76.362,38,76.56v6.305l-4.102,2.05L38,86.965v9.984l0.611,0.418c3.601,1.638,7.212,2.468,11.04,2.468   c6.535,0,10.661-2.421,10.846-2.523L61,96.861v-4.663l4.101-2.05L61,88.098V76.499l4.101-2.052L61,72.397v-6.304   c11-0.192,17.93-2.326,21.396-6.352C84.64,57.138,85,54.647,85,53.982v-1.558l4.101-2.051L85,48.323z" fill="white"/>
  </g>
</svg>
